<?xml version="1.0" encoding="UTF-8"?>
<svg width="170px" height="25px" viewBox="0 0 170 25" version="1.1" xmlns="http://www.w3.org/2000/svg" xmlns:xlink="http://www.w3.org/1999/xlink">
    <!-- Generator: Sketch 63.1 (92452) - https://sketch.com -->
    <title>4.commercetool_logo+claim_horizontal_DarkCube_CMYK</title>
    <desc>Created with Sketch.</desc>
    <g id="Page-1" stroke="none" stroke-width="1" fill="none" fill-rule="evenodd">
        <g id="Desktop-Home" transform="translate(-170.000000, -1442.000000)" fill="#213C45" fill-rule="nonzero">
            <g id="footer" transform="translate(0.000000, 1414.000000)">
                <g id="4.commercetool_logo+claim_horizontal_DarkCube_CMYK" transform="translate(170.000000, 28.000000)">
                    <g id="Layer_1-2" transform="translate(27.000000, 3.000000)">
                        <path d="M5.95093168,14.2105797 C6.84855835,14.2174393 7.74356944,14.1118044 8.61552795,13.896087 L8.88198758,15.9043478 C7.92263849,16.1601888 6.93415751,16.2870772 5.94204969,16.2817391 C1.41223602,16.2817391 0.111024845,13.4153623 0.111024845,10.0637681 C0.159875776,6.80202899 2.10503106,4.04347826 5.9331677,4.04347826 C6.92454446,4.04486379 7.91145988,4.17778478 8.8686646,4.43884058 L8.47785714,6.42913043 C7.66509266,6.23045671 6.83148244,6.13239555 5.99534161,6.13710145 C3.59276398,6.17753623 2.41590062,7.97463768 2.37149068,10.0682609 C2.32708075,12.1618841 3.13978261,14.2105797 5.95093168,14.2105797 Z" id="Path"></path>
                        <path d="M15.2192857,4.04347826 C18.9452795,4.04347826 20.6017702,6.86942029 20.6017702,10.1536232 C20.6017702,13.3569565 19.1717702,16.2233333 15.2015217,16.2457971 C11.3112112,16.2008696 9.81903727,13.3569565 9.81903727,10.1536232 C9.81903727,6.86492754 11.4977329,4.07942029 15.2192857,4.04347826 Z M15.2192857,14.2330435 C17.5996584,14.2330435 18.3635093,12.2697101 18.3635093,10.1536232 C18.3635093,8.22623188 17.5374845,6.05173913 15.2015217,6.05173913 C12.865559,6.05173913 12.0350932,8.20826087 12.0350932,10.1536232 C12.0350932,12.346087 12.9854658,14.2285507 15.2192857,14.2285507 L15.2192857,14.2330435 Z" id="Shape"></path>
                        <path d="M36.0120186,16.0301449 L36.0120186,8.4957971 C36.0120186,6.59086957 35.3103416,6.06971014 34.1290373,6.06971014 C33.1778285,6.15555176 32.2822132,6.56035061 31.5843478,7.21985507 C31.6215575,7.51797083 31.6423144,7.81795295 31.6465217,8.1184058 L31.6465217,16.0301449 L29.310559,16.0301449 L29.310559,8.39246377 C29.310559,6.48753623 28.7509938,6.02927536 27.5741304,6.02927536 C26.8280435,6.02927536 25.7977329,6.53246377 24.9095342,7.20188406 L24.9095342,16.0301449 L22.6490683,16.0301449 L22.6490683,4.24565217 L24.9450621,4.24565217 L24.9450621,5.25202899 C25.8015998,4.52616013 26.863512,4.09361338 27.9782609,4.01652174 C29.5903416,4.01652174 30.5229503,4.56014493 31.0381056,5.44072464 C31.9874558,4.5823492 33.1992602,4.07960772 34.4709938,4.01652174 C38.2591615,3.95362319 38.3213354,7.03115942 38.3213354,8.32956522 L38.3213354,16.0301449 L36.0120186,16.0301449 Z" id="Path"></path>
                        <path d="M54.2156522,16.0301449 L54.2156522,8.4957971 C54.2156522,6.59086957 53.5139752,6.06971014 52.3326708,6.06971014 C51.381462,6.15555176 50.4858467,6.56035061 49.7879814,7.21985507 C49.8251911,7.51797083 49.8459479,7.81795295 49.8501553,8.1184058 L49.8501553,16.0301449 L47.5186335,16.0301449 L47.5186335,8.39246377 C47.5186335,6.48753623 46.9590683,6.02927536 45.782205,6.02927536 C45.036118,6.02927536 44.0058075,6.53246377 43.1176087,7.20188406 L43.1176087,16.0301449 L40.8216149,16.0301449 L40.8216149,4.24565217 L43.1176087,4.24565217 L43.1176087,5.25202899 C43.9837716,4.51909753 45.0592201,4.08610871 46.1863354,4.01652174 C47.7984161,4.01652174 48.7310248,4.56014493 49.2461801,5.44072464 C50.1970857,4.58202684 51.4103877,4.07931442 52.6835093,4.01652174 C56.467236,3.95362319 56.5294099,7.03115942 56.5294099,8.32956522 L56.5294099,16.0301449 L54.2156522,16.0301449 Z" id="Path"></path>
                        <path d="M67.227764,13.8736232 L67.5786025,15.7785507 C66.4178875,16.1326606 65.2114938,16.3098233 63.9991615,16.3042029 C59.4071739,16.3042029 58.2880435,13.1817391 58.2880435,10.0637681 C58.2880435,6.9457971 59.6558696,4.04347826 63.5062112,4.04347826 C65.8865839,4.04347826 67.8717081,5.53057971 67.893913,9.31797101 L67.8717081,10.5534783 L60.5440683,10.5534783 C60.5840373,12.8582609 61.8053106,14.26 64.0968634,14.26 C65.1517835,14.2545849 66.2024923,14.1249195 67.227764,13.8736232 L67.227764,13.8736232 Z M60.6462112,8.76985507 L65.757795,8.76985507 C65.6734161,6.37971014 64.4965528,5.89898551 63.3996273,5.89898551 C61.6631988,5.88101449 60.8416149,7.0715942 60.6462112,8.76985507 Z" id="Shape"></path>
                        <path d="M76.3273602,6.40217391 C75.8396324,6.28779405 75.3402732,6.23199814 74.8396273,6.23594203 C73.7930451,6.21094539 72.7929472,6.6729411 72.1261801,7.48942029 L72.1261801,16.0256522 L69.8301863,16.0256522 L69.8301863,4.24565217 L72.1261801,4.24565217 L72.1261801,5.29246377 C72.8287676,4.54601222 73.7986813,4.1169317 74.8174224,4.10188406 C75.4720611,4.08630736 76.1239318,4.19291886 76.7403727,4.41637681 L76.3273602,6.40217391 Z" id="Path"></path>
                        <path d="M83.0465839,14.2105797 C83.9442304,14.2178097 84.8392866,14.1121694 85.7111801,13.896087 L85.9998447,15.9043478 C85.041952,16.1599001 84.0549762,16.286787 83.0643478,16.2817391 C78.5345342,16.2817391 77.228882,13.4153623 77.228882,10.0637681 C77.2732919,6.80202899 79.2006832,4.04347826 83.0465839,4.04347826 C84.0394032,4.04514192 85.0277508,4.17805473 85.9865217,4.43884058 L85.5912733,6.42913043 C84.7785863,6.2300173 83.9449228,6.13194988 83.1087578,6.13710145 C80.7106211,6.17753623 79.5293168,7.97463768 79.4893478,10.0682609 C79.4493789,12.1618841 80.2354348,14.2105797 83.0465839,14.2105797 Z" id="Path"></path>
                        <path d="M95.8544099,13.8736232 L96.2096894,15.7785507 C95.0489027,16.1323339 93.8425577,16.3094894 92.6302484,16.3043178 C88.0338199,16.3043178 86.9191304,13.1817391 86.9191304,10.0637681 C86.9191304,6.9457971 88.2825155,4.04347826 92.1328571,4.04347826 C94.5132298,4.04347826 96.498354,5.53057971 96.516118,9.31797101 L96.516118,10.5534783 L89.1751553,10.5534783 C89.2151242,12.8582609 90.4363975,14.26 92.7279503,14.26 C93.7814046,14.2545624 94.8306405,14.1248948 95.8544099,13.8736232 L95.8544099,13.8736232 Z M89.2639752,8.76985507 L94.375559,8.76985507 C94.2911801,6.37971014 93.1098758,5.89898551 92.0129503,5.89898551 C90.2898447,5.88101449 89.4815839,7.0715942 89.2639752,8.76985507 Z" id="Shape"></path>
                        <path d="M104.296739,6.17304348 L101.130311,6.17304348 L101.130311,11.8878261 C101.130311,13.0784058 101.276863,13.9185507 102.462609,14.0847826 C103.132794,14.1304251 103.805903,14.1018009 104.469938,13.9994203 L104.61205,16.0076812 C103.942132,16.1147098 103.265167,16.1702792 102.586957,16.173913 C99.8779503,16.0705797 98.8609627,14.6688406 98.8609627,12.4673913 L98.8609627,6.17753623 L97.1867081,6.17753623 L97.1867081,4.56014493 L98.8609627,4.37144928 L98.8609627,1.63086957 L101.139193,1.63086957 L101.139193,4.24565217 L104.305621,4.24565217 L104.296739,6.17304348 Z" id="Path"></path>
                        <path d="M110.975994,4.04347826 C114.701988,4.04347826 116.358478,6.86942029 116.358478,10.1536232 C116.358478,13.3569565 114.928478,16.2233333 110.95823,16.2457971 C107.067919,16.2008696 105.575745,13.3569565 105.575745,10.1536232 C105.575745,6.86492754 107.254441,4.07942029 110.975994,4.04347826 Z M110.975994,14.2330435 C113.356366,14.2330435 114.120217,12.2697101 114.120217,10.1536232 C114.120217,8.22623188 113.294193,6.05173913 110.95823,6.05173913 C108.622267,6.05173913 107.791801,8.20826087 107.791801,10.1536232 C107.791801,12.346087 108.742174,14.2285507 110.975994,14.2285507 L110.975994,14.2330435 Z" id="Shape"></path>
                        <path d="M123.348602,4.04347826 C127.070155,4.04347826 128.726646,6.86942029 128.726646,10.1536232 C128.726646,13.3569565 127.301087,16.2233333 123.326398,16.2457971 C119.436087,16.2008696 117.948354,13.3569565 117.948354,10.1536232 C117.948354,6.86492754 119.622609,4.07942029 123.348602,4.04347826 Z M123.348602,14.2330435 C125.728975,14.2330435 126.492826,12.2697101 126.492826,10.1536232 C126.470621,8.22623188 125.666801,6.05173913 123.326398,6.05173913 C121.052609,6.0742029 120.159969,8.20826087 120.159969,10.1536232 C120.159969,12.346087 121.114783,14.2285507 123.348602,14.2285507 L123.348602,14.2330435 Z" id="Shape"></path>
                        <polygon id="Path" points="130.565217 16.0301449 130.565217 0.0404347826 132.785714 0.0404347826 132.785714 16.0301449"></polygon>
                        <path d="M135.095031,13.7478261 C136.169511,14.0414255 137.273554,14.2102433 138.385807,14.2510145 C139.296211,14.2510145 140.22882,14.0623188 140.290994,12.9526087 C140.353168,11.8428986 139.149658,11.4250725 137.786273,10.8410145 C136.236366,10.1895652 134.557671,9.31347826 134.602081,7.13449275 C134.64205,6.04724638 135.281553,3.91318841 138.718882,4.01652174 C139.834727,4.04244078 140.944318,4.19311496 142.027422,4.4657971 L141.636615,6.38869565 C140.647313,6.12984918 139.633394,5.97922722 138.612298,5.93942029 C137.621957,5.93942029 136.835901,6.25391304 136.813696,7.1973913 C136.791491,7.9926087 137.41323,8.41043478 138.945373,9.03942029 C140.477516,9.6684058 142.68913,10.5265217 142.586988,12.9930435 C142.524814,14.5655072 141.512267,16.2817391 138.385807,16.2368116 C137.110386,16.2329398 135.842123,16.0438117 134.619845,15.6752174 L135.095031,13.7478261 Z" id="Path"></path>
                    </g>
                    <g id="Layer_3">
                        <path d="M21.1020408,18.7090909 L11.3367347,14.0909091 C11.258481,14.0513737 11.1754678,14.0223409 11.0897959,14.0045455 L11.0897959,11.2272727 C11.0897959,10.9545455 11.0897959,10.95 11.2738776,10.8681818 L11.2738776,10.8681818 L11.66,10.6863636 C12.3155102,10.3818182 12.3155102,10.3818182 16.1497959,8.55909091 L21.0885714,6.22272727 C21.3772148,6.08860146 21.56223,5.79653254 21.56223,5.475 C21.56223,5.15346746 21.3772148,4.86139854 21.0885714,4.72727273 L11.3367347,0.127272727 C10.9829493,-0.0353094711 10.5770507,-0.0353094711 10.2232653,0.127272727 L0.471428571,4.71363636 C0.187346644,4.8491094 0.00438074775,5.13666323 -5.65594146e-05,5.45454545 L-5.65594146e-05,5.45454545 L-5.65594146e-05,19.4409091 L-5.65594146e-05,19.4409091 C-0.00366127035,19.7559268 0.170686033,20.0454009 0.448979592,20.1863636 L10.2322449,24.8181818 C10.3083588,24.854212 10.3881591,24.88165 10.4702041,24.9 L10.6228571,24.9318182 L10.7710204,24.9318182 L10.7979592,24.9318182 L10.977551,24.9318182 L11.0897959,24.9090909 C11.1808374,24.8876951 11.2695678,24.8572442 11.3546939,24.8181818 L21.1020408,20.2045455 C21.3906842,20.0704196 21.5756994,19.7783507 21.5756994,19.4568182 C21.5756994,19.1352856 21.3906842,18.8432167 21.1020408,18.7090909 Z M0.619591837,18.6363636 L0.619591837,6.27727273 L10.2322449,10.8227273 C10.3123776,10.8575464 10.3949089,10.8864106 10.4791837,10.9090909 L10.4791837,10.9090909 C10.4719304,11.0089561 10.4719304,11.1092257 10.4791837,11.2090909 L10.4791837,14 C10.4005706,14.0182082 10.3238856,14.0440867 10.2502041,14.0772727 L0.619591837,18.6363636 Z M0.731836735,5.29545455 L10.4836735,0.695454545 C10.6695201,0.604874043 10.8859901,0.604874043 11.0718367,0.695454545 L20.8281633,5.29545455 C20.8947585,5.32865823 20.936651,5.39757747 20.9359773,5.47272727 C20.9377761,5.54818882 20.8955404,5.61767273 20.8281633,5.65 L15.8893878,7.99090909 L11.3995918,10.1181818 L11.0314286,10.2909091 L10.9506122,10.3136364 L10.9102041,10.3136364 C10.8685807,10.320589 10.8261132,10.320589 10.7844898,10.3136364 C10.6852925,10.3136774 10.5872632,10.2919676 10.4971429,10.25 L0.731836735,5.63636364 C0.715390188,5.63004325 0.700186852,5.62080816 0.686938776,5.60909091 C0.645316671,5.56852666 0.621126025,5.51301479 0.619591837,5.45454545 C0.621402586,5.38000814 0.664942698,5.31300674 0.731836735,5.28181818 L0.731836735,5.29545455 Z M0.731836735,19.6318182 C0.663492141,19.5999255 0.619681552,19.5307337 0.619591837,19.4545455 C0.61742892,19.4364296 0.61742892,19.4181159 0.619591837,19.4 C0.635481322,19.346235 0.672952108,19.3017023 0.722857143,19.2772727 L10.4702041,14.6818182 L10.4702041,24.2272727 L0.731836735,19.6318182 Z M20.8281633,19.6318182 L11.0897959,24.25 L11.0897959,24.25 L11.0897959,14.6818182 L20.8281633,19.2772727 C20.8947585,19.3104764 20.936651,19.3793956 20.9359773,19.4545455 C20.9377761,19.530007 20.8955404,19.5994909 20.8281633,19.6318182 L20.8281633,19.6318182 Z" id="Shape"></path>
                    </g>
                </g>
            </g>
        </g>
    </g>
</svg>